<?xml version="1.0" encoding="iso-8859-1"?>
<!-- Generator: Adobe Illustrator 19.0.0, SVG Export Plug-In . SVG Version: 6.00 Build 0)  -->
<svg version="1.1" id="Capa_1" xmlns="http://www.w3.org/2000/svg" xmlns:xlink="http://www.w3.org/1999/xlink" x="0px" y="0px"
	 viewBox="0 0 512 512" style="enable-background:new 0 0 512 512;" xml:space="preserve">
<path style="fill:#374266;" d="M512,256c0,87.876-44.283,165.418-111.752,211.519C359.173,495.585,309.509,512,256,512
	c-23.333,0-45.923-3.124-67.406-8.965c-9.916-2.696-19.592-5.987-28.996-9.812C65.996,455.147,0,363.28,0,256
	C0,114.615,114.615,0,256,0S512,114.615,512,256z"/>
<path style="fill:#FFE261;" d="M420.517,26.58H91.477c-19.066,0-34.522,15.456-34.522,34.522v172.314
	c0,19.066,15.456,34.522,34.522,34.522h329.04c19.066,0,34.522-15.456,34.522-34.522V61.102
	C455.039,42.036,439.583,26.58,420.517,26.58z"/>
<path style="fill:#FFDCBF;" d="M407.552,363.092v59.81c0,14.691-2.487,30.02-7.304,44.617C359.173,495.585,309.509,512,256,512
	c-34.105,0-66.644-6.666-96.402-18.777c-14.545-32.413-14.723-68.556-14.723-68.556c0-0.334-0.021-31.013-7.617-44.722
	c-7.931-14.294-2.779-32.308,11.525-40.249c14.305-7.931,32.319-2.769,40.249,11.525c9.885,17.826,11.097,26.645,11.097,26.645
	V238.77c0-7.147,2.894-13.636,7.596-18.328c4.692-4.702,11.18-7.596,18.327-7.596c14.315,0,25.913,11.598,25.924,25.903v91.805
	c0-14.315,11.609-25.924,25.934-25.924c7.158,0,13.636,2.905,18.328,7.596c4.692,4.692,7.596,11.17,7.596,18.328v6.614
	c0-7.158,2.905-13.646,7.596-18.338c4.692-4.692,11.17-7.596,18.338-7.596c7.158,0,13.636,2.905,18.328,7.596
	c4.692,4.692,7.596,11.18,7.596,18.338v25.924c0-14.315,11.609-25.924,25.934-25.924c7.158,0,13.636,2.905,18.328,7.596
	C404.647,349.456,407.552,355.934,407.552,363.092z"/>
<g>
	<path style="fill:#FCBB8D;" d="M212.552,425.614c-6.775,0.311-12.424-5.139-12.424-11.921v-174.92
		c0-7.158,2.905-13.636,7.596-18.328c4.702-4.702,11.18-7.596,18.338-7.596c4.336,0,8.432,1.066,12.016,2.957
		c-2.341,1.212-4.472,2.79-6.322,4.639c-4.692,4.692-7.596,11.17-7.596,18.328v174.913c0,6.337-4.953,11.603-11.284,11.913
		C212.769,425.604,212.661,425.609,212.552,425.614z"/>
	<path style="fill:#FCBB8D;" d="M264.405,382.814c-6.775,0.311-12.424-5.139-12.424-11.921v-40.338
		c0-7.158,2.905-13.636,7.596-18.328c4.702-4.702,11.18-7.596,18.338-7.596c4.336,0,8.432,1.066,12.016,2.957
		c-2.341,1.212-4.472,2.79-6.322,4.639c-4.692,4.692-7.596,11.17-7.596,18.328v40.33c0,6.337-4.953,11.603-11.284,11.913
		C264.622,382.804,264.514,382.809,264.405,382.814z"/>
	<path style="fill:#FCBB8D;" d="M316.263,373.751c-6.775,0.311-12.424-5.139-12.424-11.92v-24.664
		c0-7.158,2.905-13.636,7.596-18.328c4.702-4.702,11.18-7.596,18.338-7.596c4.336,0,8.432,1.066,12.016,2.957
		c-2.341,1.212-4.472,2.79-6.322,4.639c-4.692,4.692-7.596,11.17-7.596,18.328v24.655c0,6.337-4.953,11.603-11.284,11.913
		C316.481,373.74,316.372,373.745,316.263,373.751z"/>
	<path style="fill:#FCBB8D;" d="M368.121,384.005c-6.775,0.311-12.424-5.139-12.424-11.921v-8.989
		c0-7.158,2.905-13.636,7.596-18.328c4.702-4.702,11.18-7.596,18.338-7.596c4.336,0,8.432,1.066,12.016,2.957
		c-2.341,1.212-4.472,2.79-6.322,4.639c-4.692,4.692-7.596,11.17-7.596,18.328v8.981c0,6.337-4.953,11.603-11.284,11.913
		C368.338,383.995,368.229,384,368.121,384.005z"/>
	<path style="fill:#FCBB8D;" d="M188.594,503.035c-9.916-2.696-19.592-5.987-28.996-9.812
		c-14.545-32.413-14.712-68.556-14.712-68.556c0-0.167-0.01-30.992-7.628-44.732c-7.931-14.284-2.769-32.308,11.525-40.239
		c8.443-4.681,18.192-4.807,26.384-1.17c-0.794,0.355-1.578,0.742-2.351,1.17c-14.294,7.931-19.456,25.955-11.525,40.239
		c7.617,13.74,7.628,44.565,7.628,44.732C168.918,424.667,169.127,468.605,188.594,503.035z"/>
</g>
<g>
	<path style="fill:#F58D2C;" d="M123.086,92.464c0-4.741,4.916-7.199,10.008-7.199h33.889c18.262,0,35.294,5.97,35.294,30.904
		c0,14.399-5.619,23.88-14.925,27.919c10.711,4.214,18.086,11.062,18.086,28.622v3.687c0,27.392-15.275,37.224-35.117,37.224
		h-37.226c-6.146,0-10.008-3.336-10.008-7.024V92.464H123.086z M145.737,135.132h19.666c9.481,0,14.047-6.145,14.047-15.101
		c0-9.13-5.268-14.75-14.223-14.75h-19.489V135.132z M165.579,193.604c10.71,0,17.032-5.794,17.032-19.139v-2.809
		c0-13.697-6.322-18.613-17.032-18.613h-19.842v40.561H165.579z"/>
	<path style="fill:#F58D2C;" d="M282.696,92.289c0-4.916,5.618-7.024,11.413-7.024c5.618,0,11.413,2.108,11.413,7.024v82.176
		c0,29.323-18.613,40.21-42.142,40.21c-23.705,0-42.142-10.887-42.142-40.21V92.289c0-4.916,5.619-7.024,11.414-7.024
		c5.618,0,11.413,2.108,11.413,7.024v82.176c0,13.695,7.199,20.193,19.314,20.193c12.117,0,19.315-6.497,19.315-20.193V92.289z"/>
	<path style="fill:#F58D2C;" d="M354.511,162.173c0-0.878-0.176-1.755-0.527-2.283l-36.347-62.861
		c-0.351-0.878-0.527-1.755-0.527-2.283c0-5.618,8.955-9.481,15.1-9.481c3.687,0,5.444,1.404,7.025,4.565l26.689,50.745
		L392.79,89.83c1.581-2.985,3.161-4.565,6.848-4.565c6.146,0,15.101,3.863,15.101,9.481c0,0.527,0,1.404-0.527,2.283l-36.171,62.861
		c-0.351,0.527-0.703,1.404-0.703,2.283v44.249c0,4.741-5.618,7.199-11.413,7.199c-5.618,0-11.413-2.459-11.413-7.199
		L354.511,162.173L354.511,162.173z"/>
</g>
<g>
</g>
<g>
</g>
<g>
</g>
<g>
</g>
<g>
</g>
<g>
</g>
<g>
</g>
<g>
</g>
<g>
</g>
<g>
</g>
<g>
</g>
<g>
</g>
<g>
</g>
<g>
</g>
<g>
</g>
</svg>
