<svg id="Capa_1" enable-background="new 0 0 512 512" height="512" viewBox="0 0 512 512" width="512" xmlns="http://www.w3.org/2000/svg"><g><g><path d="m451.777 299.7c0-24.742-11.042-46.882-28.438-61.734-10.098-8.621-16.783-20.583-18.377-33.805-1.68-13.926-7.831-27.409-18.464-38.099-.523-.526-1.054-1.042-1.59-1.546-8.291-7.792-14.203-17.776-16.629-28.922-9.835-45.183-43.585-81.352-87.235-94.471-32.25 7.121-59.822 26.789-77.39 53.663-32.827-8.395-69.089.302-94.778 26.129-16.067 16.153-25.455 36.467-28.206 57.491-46.172 9.245-80.928 50.324-80.667 99.519.296 55.713 46.133 100.368 101.552 100.368h289.16c35.068-8.769 61.062-40.623 61.062-78.593z" fill="#88a8d8"/><path d="m473.018 229.705c-4.553-2.714-7.253-7.816-6.877-13.123 1.27-17.905-4.893-36.242-18.511-49.931-3.068-3.084-6.37-5.787-9.849-8.111-3.422-2.286-5.64-6.014-6.13-10.115-7.414-62.095-59.988-110.229-123.754-110.229-11.657 0-22.935 1.623-33.637 4.632 44.051 12.396 78.245 48.508 88.099 93.779 2.392 10.991 8.222 20.835 16.397 28.519.529.497 1.052 1.006 1.568 1.524 10.485 10.541 16.551 23.836 18.207 37.568 1.572 13.038 8.163 24.833 18.121 33.334 17.154 14.644 28.042 36.475 28.042 60.873 0 44.109-35.568 79.867-79.444 79.867h66.156c44.073 0 80.964-36.252 80.591-80.557-.244-28.961-15.83-54.229-38.979-68.03z" fill="#7296d1"/><g><path d="m319.454 446.3v-263.792c0-12.503-7.726-23.185-18.637-27.504h-84.655c-5.939 0-11.71 1.637-16.718 4.659v51.34c0 6.977-5.626 12.633-12.566 12.633h-51.068c-3.007 5.035-4.635 10.836-4.635 16.807v204.18c0 16.116 12.995 29.181 29.026 29.181h140.616c10.911-4.319 18.637-15.001 18.637-27.504z" fill="#f7f4f7"/><path d="m351.799 155.004h-67.305c16.031 0 29.026 13.065 29.026 29.181v260.438c0 16.116-12.995 29.181-29.026 29.181h67.305c16.031 0 29.026-13.065 29.026-29.181v-260.438c0-16.116-12.995-29.181-29.026-29.181z" fill="#e0dde0"/><path d="m140.687 217.357 52.511-52.79c2.776-2.791 6.006-5.017 9.512-6.621v56.341c0 6.977-5.626 12.633-12.566 12.633h-56.043c1.596-3.525 3.81-6.772 6.586-9.563z" fill="#efd133"/></g><g><g><path d="m337.256 276.232h-162.512c-4.268 0-7.726-3.478-7.726-7.767s3.459-7.767 7.726-7.767h162.511c4.268 0 7.726 3.478 7.726 7.767s-3.458 7.767-7.725 7.767z" fill="#808080"/></g><g><path d="m337.256 319.586h-162.512c-4.268 0-7.726-3.478-7.726-7.767s3.459-7.767 7.726-7.767h162.511c4.268 0 7.726 3.478 7.726 7.767s-3.458 7.767-7.725 7.767z" fill="#808080"/></g><g><path d="m337.256 362.941h-162.512c-4.268 0-7.726-3.478-7.726-7.767s3.459-7.767 7.726-7.767h162.511c4.268 0 7.726 3.478 7.726 7.767s-3.458 7.767-7.725 7.767z" fill="#808080"/></g><g fill="#595959"><path d="m337.256 260.697h-23.736v15.535h23.736c4.268 0 7.726-3.478 7.726-7.767s-3.459-7.768-7.726-7.768z"/><path d="m337.256 304.052h-23.736v15.535h23.736c4.268 0 7.726-3.478 7.726-7.767s-3.459-7.768-7.726-7.768z"/><path d="m337.256 347.406h-23.736v15.535h23.736c4.268 0 7.726-3.478 7.726-7.767s-3.459-7.768-7.726-7.768z"/></g><g><path d="m228.915 406.295h-54.17c-4.268 0-7.726-3.478-7.726-7.767 0-4.29 3.459-7.767 7.726-7.767h54.17c4.268 0 7.726 3.478 7.726 7.767 0 4.29-3.459 7.767-7.726 7.767z" fill="#808080"/></g></g></g></g></svg>