<svg height="462pt" viewBox="-19 0 462 462.83957" width="462pt" xmlns="http://www.w3.org/2000/svg"><path d="m424.699219 0v304.648438h-77.898438l9.449219-18.1875c.070312-.136719.074219-.300782.007812-.441407-.066406-.140625-.195312-.238281-.347656-.269531l-22.421875-4.359375c-.230469-.050781-.394531-.253906-.386719-.492187l.707032-22.867188c.003906-.15625-.0625-.300781-.183594-.398438-.117188-.09375-.277344-.128906-.425781-.09375l-22.109375 5.800782c-.234375.058594-.472656-.058594-.570313-.28125l-9.289062-20.910156c-.0625-.140626-.1875-.242188-.335938-.273438-.152343-.035156-.308593.003906-.425781.105469l-17.410156 14.808593c-.179688.160157-.449219.160157-.628906 0l-17.410157-14.808593c-.117187-.097657-.277343-.136719-.425781-.101563-.152344.03125-.277344.132813-.34375.269532l-9.28125 20.910156c-.09375.222656-.335938.339844-.570312.28125l-22.117188-5.800782c-.148438-.035156-.308594 0-.425781.097657-.121094.09375-.1875.238281-.1875.394531l.722656 22.867188c0 .238281-.167969.445312-.402344.492187l-22.410156 4.359375c-.148437.03125-.277344.128906-.34375.269531s-.066406.304688.003906.441407l9.390625 18.078124-.21875.109376h-217.992187v-304.648438zm0 0" fill="#00efd1"/><path d="m346.800781 304.648438-1.082031 2.082031c-.109375.210937-.050781.46875.140625.609375l18.269531 13.691406c.125.089844.195313.234375.195313.390625 0 .152344-.070313.296875-.195313.386719l-18.269531 13.730468c-.191406.140626-.25.402344-.140625.609376l10.53125 20.273437c.070312.136719.074219.296875.007812.4375-.066406.140625-.195312.238281-.347656.269531l-22.421875 4.359375c-.230469.046875-.394531.253907-.386719.492188l.707032 22.871093c.007812.152344-.0625.296876-.183594.394532-.117188.09375-.277344.125-.425781.082031l-10.660157-2.789063-11.449218-3c-.234375-.058593-.472656.0625-.570313.28125l-9.289062 20.910157c-.0625.140625-.1875.242187-.335938.277343-.152343.03125-.308593-.007812-.425781-.109374l-17.410156-14.820313c-.183594-.148437-.445313-.148437-.628906 0l-10.449219 8.890625-6.960938 5.929688c-.117187.101562-.277343.136718-.425781.105468-.152344-.035156-.277344-.136718-.34375-.273437l-9.28125-20.910157c-.09375-.21875-.335938-.339843-.570312-.28125l-10.6875 2.800782-11.429688 2.988281c-.148438.042969-.308594.007813-.425781-.085937-.121094-.09375-.191407-.238282-.1875-.390626l.722656-22.871093c.003906-.238281-.167969-.445313-.402344-.492188l-22.410156-4.359375c-.148437-.03125-.277344-.128906-.34375-.269531s-.066406-.300781.003906-.4375l10.53125-20.273437c.109375-.207032.050781-.46875-.140625-.609376l-18.277344-13.730468c-.125-.089844-.195312-.234375-.195312-.386719 0-.15625.070312-.300781.195312-.390625l18.277344-13.691406c.191406-.140625.25-.398438.140625-.609375l-1.140625-2.191407-9.390625-18.078124c-.070312-.136719-.070312-.300782-.003906-.441407s.195313-.238281.34375-.269531l22.410156-4.359375c.234375-.046875.402344-.253906.402344-.492187l-.722656-22.867188c0-.15625.066406-.300781.1875-.394531.117187-.097657.277343-.132813.425781-.097657l22.117188 5.800782c.234374.058594.476562-.058594.570312-.28125l9.28125-20.910156c.066406-.136719.191406-.238282.34375-.269532.148438-.035156.308594.003906.425781.101563l17.410157 14.808593c.179687.160157.449218.160157.628906 0l17.410156-14.808593c.117188-.101563.273438-.140625.425781-.105469.148438.03125.273438.132812.335938.273438l9.289062 20.910156c.097657.222656.335938.339844.570313.28125l22.109375-5.800782c.148437-.035156.308593 0 .425781.09375.121094.097657.1875.242188.183594.398438l-.707032 22.867188c-.007812.238281.15625.441406.386719.492187l22.421875 4.359375c.152344.03125.28125.128906.347656.269531.066407.140625.0625.304688-.007812.441407zm-26.472656 16.792968c0-20.761718-16.828125-37.589844-37.589844-37.589844-20.757812 0-37.589843 16.828126-37.589843 37.589844 0 20.757813 16.832031 37.589844 37.589843 37.589844 20.761719 0 37.589844-16.832031 37.589844-37.589844zm0 0" fill="#00acea"/><path d="m345.640625 438.878906c.722656 1.757813.363281 3.777344-.929687 5.171875-1.289063 1.394531-3.273438 1.914063-5.082032 1.328125l-18.730468-6.070312c-2.3125-.746094-4.824219.324218-5.886719 2.511718l-8.203125 16.808594c-.839844 1.730469-2.621094 2.800782-4.542969 2.738282s-3.628906-1.246094-4.355469-3.027344l-14.851562-36.28125-11.078125-27.089844 10.449219-8.890625c.183593-.148437.445312-.148437.628906 0l17.410156 14.820313c.117188.101562.273438.140624.425781.109374.148438-.035156.273438-.136718.335938-.277343l9.289062-20.910157c.097657-.21875.335938-.339843.570313-.28125l11.449218 3-.039062.152344zm0 0" fill="#fedb41"/><path d="m320.328125 321.441406c0 20.757813-16.828125 37.589844-37.589844 37.589844-20.757812 0-37.589843-16.832031-37.589843-37.589844 0-20.761718 16.832031-37.589844 37.589843-37.589844 20.761719 0 37.589844 16.828126 37.589844 37.589844zm0 0" fill="#fedb41"/><path d="m271.980469 394.96875 11.078125 27.089844-.078125.03125-15.402344 37.710937c-.722656 1.78125-2.429687 2.972657-4.351563 3.035157-1.921874.066406-3.703124-1.007813-4.546874-2.734376l-8.210938-16.820312c-1.0625-2.183594-3.570312-3.25-5.878906-2.5l-18.730469 6.058594c-1.808594.585937-3.792969.070312-5.085937-1.324219-1.292969-1.398437-1.65625-3.417969-.933594-5.175781l23.878906-57.96875-.007812-.03125 10.6875-2.800782c.234374-.058593.476562.0625.570312.28125l9.28125 20.910157c.066406.136719.191406.238281.34375.273437.148438.03125.308594-.003906.425781-.105468zm0 0" fill="#f4b844"/><g fill="#00acea"><path d="m378.558594 140.421875h-333c-4.417969 0-8-3.582031-8-8 0-4.421875 3.582031-8 8-8h333c4.417968 0 8 3.578125 8 8 0 4.417969-3.582032 8-8 8zm0 0"/><path d="m218.558594 98.421875h-173c-4.417969 0-8-3.582031-8-8 0-4.421875 3.582031-8 8-8h173c4.417968 0 8 3.578125 8 8 0 4.417969-3.582032 8-8 8zm0 0"/><path d="m378.558594 183.421875h-333c-4.417969 0-8-3.582031-8-8 0-4.421875 3.582031-8 8-8h333c4.417968 0 8 3.578125 8 8 0 4.417969-3.582032 8-8 8zm0 0"/><path d="m378.558594 225.421875h-333c-4.417969 0-8-3.582031-8-8 0-4.421875 3.582031-8 8-8h333c4.417968 0 8 3.578125 8 8 0 4.417969-3.582032 8-8 8zm0 0"/></g></svg>