<svg id="Capa_1" enable-background="new 0 0 512 512" height="512" viewBox="0 0 512 512" width="512" xmlns="http://www.w3.org/2000/svg"><g><g><path d="m353.944 194.624h-6.421c19.066-15.889 31.223-39.826 31.223-66.553 0-47.726-38.763-86.554-86.409-86.554s-86.409 38.828-86.409 86.554c0 26.727 12.157 50.664 31.223 66.553h-6.421c-23.624 0-44.557 11.763-57.269 29.748-5.43-1.661-11.07-2.505-16.837-2.515 13.387-12.952 21.723-31.109 21.723-51.18 0-39.249-31.879-71.18-71.063-71.18-39.185 0-71.064 31.931-71.064 71.18 0 20.071 8.336 38.228 21.723 51.18-31.959.057-57.943 26.116-57.943 58.139v60.229c0 5.523 4.477 10 10 10h315.354c5.523 0 10-4.477 10-10s-4.477-10-10-10h-144.747v-65.364c0-27.701 22.485-50.237 50.123-50.237h61.453.154s.103 0 .154 0h61.453c27.638 0 50.123 22.536 50.123 50.237v13.227c0 5.523 4.477 10 10 10s10-4.477 10-10v-13.227c0-38.729-31.457-70.237-70.123-70.237zm-297.724-23.947c0-28.221 22.907-51.18 51.064-51.18s51.063 22.959 51.063 51.18-22.907 51.18-51.063 51.18-51.064-22.96-51.064-51.18zm-36.22 159.548v-50.229c0-21.03 17.068-38.139 38.048-38.139h98.47c2.61 0 5.178.26 7.687.775-2.334 6.989-3.599 14.464-3.599 22.23v65.364h-140.606zm205.928-202.154c0-36.698 29.791-66.554 66.409-66.554s66.409 29.856 66.409 66.554c0 36.646-29.707 66.469-66.253 66.553h-.312c-36.546-.085-66.253-29.908-66.253-66.553z" fill="#020288"/></g><g><ellipse cx="398.952" cy="357.22" fill="#b2f0fb" rx="113.048" ry="113.262"/><path d="m426.508 347.221h-17.556v-17.608c0-5.523-4.477-10-10-10s-10 4.477-10 10v17.608h-17.556c-5.523 0-10 4.477-10 10s4.477 10 10 10h17.556v17.608c0 5.523 4.477 10 10 10s10-4.477 10-10v-17.608h17.556c5.523 0 10-4.477 10-10s-4.477-10-10-10z" fill="#020288"/></g></g></svg>