<?xml version="1.0" encoding="iso-8859-1"?>
<!-- Generator: Adobe Illustrator 19.0.0, SVG Export Plug-In . SVG Version: 6.00 Build 0)  -->
<svg version="1.1" id="Capa_1" xmlns="http://www.w3.org/2000/svg" xmlns:xlink="http://www.w3.org/1999/xlink" x="0px" y="0px"
	 viewBox="0 0 512 512" style="enable-background:new 0 0 512 512;" xml:space="preserve">
<circle style="fill:#293D7C;" cx="256" cy="267" r="245"/>
<path style="fill:#445EA0;" d="M401.038,314v-12.971c-0.654-1.014-1.038-2.217-1.038-3.511V287c0-0.553-0.448-1-1-1h-10.272
	c-3.584,0-6.5-2.916-6.5-6.5s2.916-6.5,6.5-6.5h12.31v-43.004c-0.013,0-0.025,0.004-0.038,0.004h-39.495
	c-0.16,0-0.312-0.029-0.467-0.047V294h-26.357v3.519c0,3.584-2.916,6.5-6.5,6.5c-0.227,0-0.45-0.012-0.671-0.034v24.367
	c0.221-0.023,0.444-0.035,0.671-0.035c3.307,0,6.039,2.484,6.443,5.684h46.414C392.084,334,401.038,325.046,401.038,314z"/>
<path style="fill:#FFE2B8;" d="M361.505,231H401c2.75,0,5-2.25,5-5v-33.871c0-2.75-2.25-5-5-5h-27.622V170.5h-16.873V226
	C356.505,228.75,358.755,231,361.505,231z"/>
<path style="fill:#FFC987;" d="M367,226v-55.5h-10.495V226c0,2.75,2.25,5,5,5H372C369.25,231,367,228.75,367,226z"/>
<g>
	<path style="fill:#EEF6FF;" d="M199.995,60.512L167.223,3.75c-1.34-2.32-3.815-3.75-6.495-3.75H95.185
		c-2.68,0-5.155,1.43-6.495,3.75L61.41,51h17.32l20.785-36h56.883l28.442,49.262l-28.442,49.263H148v15h12.728
		c2.68,0,5.155-1.43,6.495-3.75l32.772-56.763C201.335,65.691,201.335,62.832,199.995,60.512z"/>
	<path style="fill:#EEF6FF;" d="M135,113.524H99.515L71.073,64.262L71.225,64H54.93c-0.048,1.382,0.272,2.773,0.988,4.012
		l32.772,56.763c1.34,2.32,3.815,3.75,6.495,3.75H135V113.524z"/>
</g>
<g>
	<rect x="134" y="200.67" style="fill:#C3DDF4;" width="15" height="11.889"/>
	<path style="fill:#C3DDF4;" d="M104.5,237.444h5.5h35.75c2.012-2.22,3.25-5.153,3.25-8.378v-3.511h-15v1.011H85.055v15h13.401
		C99.409,239.156,101.756,237.444,104.5,237.444z"/>
	<rect x="134" y="170.5" style="fill:#C3DDF4;" width="15" height="17.17"/>
	<path style="fill:#C3DDF4;" d="M72.055,226.566H42.81V65H134v92.5h15v-95c0-6.893-5.607-12.5-12.5-12.5H40.31
		c-6.892,0-12.5,5.607-12.5,12.5v166.566c0,6.893,5.608,12.5,12.5,12.5h31.745V226.566z"/>
</g>
<rect x="368.55" y="130" style="fill:#EEF6FF;" width="15" height="27.5"/>
<g>
	<path style="fill:#C3DDF4;" d="M463.485,0h-174.87c-6.893,0-12.5,5.607-12.5,12.5v81.607c1.623,1.217,3.181,2.541,4.653,3.984
		c0.187,0.184,0.438,0.286,0.7,0.286c3.324,0,6.552,0.405,9.647,1.151V15h169.87v101.512H315.531c3.006,4.458,5.149,9.538,6.211,15
		h141.743c6.892,0,12.5-5.607,12.5-12.5V12.5C475.985,5.607,470.378,0,463.485,0z"/>
	<path style="fill:#C3DDF4;" d="M437.366,48.367h-59.185c-4.142,0-7.5-3.357-7.5-7.5s3.358-7.5,7.5-7.5h59.185
		c4.142,0,7.5,3.357,7.5,7.5S441.508,48.367,437.366,48.367z"/>
	<path style="fill:#C3DDF4;" d="M437.366,73.256h-59.185c-4.142,0-7.5-3.357-7.5-7.5s3.358-7.5,7.5-7.5h59.185
		c4.142,0,7.5,3.357,7.5,7.5C444.866,69.898,441.508,73.256,437.366,73.256z"/>
	<path style="fill:#C3DDF4;" d="M407.332,98.145h-29.151c-4.142,0-7.5-3.357-7.5-7.5s3.358-7.5,7.5-7.5h29.151
		c4.142,0,7.5,3.357,7.5,7.5C414.832,94.787,411.474,98.145,407.332,98.145z"/>
	<path style="fill:#C3DDF4;" d="M348.309,98.145h-30.07c-5.79,0-10.5-4.71-10.5-10.5V43.867c0-5.79,4.71-10.5,10.5-10.5h30.07
		c5.789,0,10.5,4.71,10.5,10.5v43.777C358.809,93.435,354.098,98.145,348.309,98.145z M322.738,83.145h21.07V48.367h-21.07V83.145z"
		/>
</g>
<path style="fill:#FFE2B8;" d="M173,202.962c0,5.289,4.288,9.576,9.577,9.576h6.923V173c0-0.84,0.029-1.672,0.066-2.5h-16.539
	c-0.01,0.18-0.027,0.356-0.027,0.538V202.962z"/>
<path style="fill:#FFC987;" d="M322.5,212.538h6.923c5.29,0,9.577-4.287,9.577-9.576v-31.924c0-0.182-0.017-0.358-0.027-0.538
	h-16.539c0.037,0.828,0.066,1.66,0.066,2.5V212.538z"/>
<path style="fill:#EF8318;" d="M321.05,157.5h2.45v-18.167c0-23.171-18.784-41.955-41.956-41.955h-1.566
	c7.538,7.39,12.585,17.309,13.765,28.385C306.773,132.347,316.685,143.416,321.05,157.5z"/>
<path style="fill:#DB722C;" d="M190.953,157.5c7.25-23.409,29.816-38.5,56.547-38.5h17c11.295,0,21.846,2.698,30.815,7.574
	C293.194,102.712,273.159,84,248.744,84h-13.476c-25.83,0-46.769,20.938-46.769,46.768V157.5H190.953z"/>
<path style="fill:#C65E24;" d="M209.185,130.768c0-24.619,19.028-44.781,43.178-46.617c-1.195-0.091-2.399-0.15-3.618-0.15h-13.476
	c-25.83,0-46.769,20.938-46.769,46.768V157.5h2.453c3.282-10.596,9.708-19.479,18.231-26.038L209.185,130.768L209.185,130.768z"/>
<g>
	<path style="fill:#445EA0;" d="M186.864,293.875c3.099-5.412,8.92-9.074,15.59-9.074h-19.68c-6.814,0-12.762,3.643-16.052,9.074
		H186.864z"/>
	<path style="fill:#445EA0;" d="M181.809,340.125v-25.721c0-0.369-0.203-0.708-0.528-0.882c-0.148-0.079-0.31-0.118-0.472-0.118
		c-0.194,0-0.388,0.057-0.556,0.169L164,324.432v16.693h16.809C181.361,341.125,181.809,340.678,181.809,340.125z"/>
	<rect x="164" y="354.12" style="fill:#445EA0;" width="20.489" height="16.375"/>
	<rect x="164" y="383.5" style="fill:#445EA0;" width="20.489" height="32.5"/>
</g>
<g>
	<path style="fill:#69CDFF;" d="M328.181,328.316c0.194,0,0.385,0.013,0.574,0.029v-24.356c-0.19,0.017-0.38,0.029-0.574,0.029
		c-3.584,0-6.5-2.916-6.5-6.5v-9.007c-3.025-2.317-6.794-3.711-10.891-3.711h-27.333v-12.217C276.551,275.455,269.259,277,262,277
		h-12c-7.258,0-14.55-1.545-21.457-4.416v12.217h-27.334c-6.67,0-12.491,3.662-15.59,9.074h2.689c3.584,0,6.5,2.916,6.5,6.5v47.25
		c0,3.584-2.916,6.5-6.5,6.5h-5.064V370.5h145.511v-11.66h-0.574c-3.584,0-6.5-2.916-6.5-6.5v-17.523
		C321.681,331.232,324.597,328.316,328.181,328.316z"/>
	<rect x="183.25" y="383.5" style="fill:#69CDFF;" width="40.755" height="32.5"/>
	<rect x="288" y="383.5" style="fill:#69CDFF;" width="40.755" height="32.5"/>
</g>
<g>
	<path style="fill:#C3DDF4;" d="M188.309,293.875c3.584,0,6.5,2.916,6.5,6.5v18.16l33.734-33.734h-27.334
		c-6.67,0-12.491,3.662-15.59,9.074H188.309z"/>
	<path style="fill:#C3DDF4;" d="M328.181,328.316c0.194,0,0.385,0.013,0.574,0.029v-24.356c-0.19,0.017-0.38,0.029-0.574,0.029
		c-3.584,0-6.5-2.916-6.5-6.5v-9.007c-3.025-2.317-6.794-3.711-10.891-3.711h-27.333l43.616,43.617
		C327.435,328.355,327.803,328.316,328.181,328.316z"/>
</g>
<g>
	<path style="fill:#FFE2B8;" d="M188.5,173v43c0,32.585,28.915,62,61.5,62h12c32.585,0,61.5-29.415,61.5-62v-43
		c0-0.842-0.028-1.672-0.064-2.5H188.563C188.528,171.328,188.5,172.158,188.5,173z"/>
	<path style="fill:#FFE2B8;" d="M321.342,157.5c-6.911-23.977-29.733-39.5-56.842-39.5h-17c-27.109,0-49.932,15.523-56.842,39.5
		H321.342z"/>
</g>
<g>
	<path style="fill:#FFC987;" d="M258,118h-10.5c-27.109,0-49.932,15.523-56.842,39.5h10.5C208.068,133.523,230.891,118,258,118z"/>
	<path style="fill:#FFC987;" d="M199,216v-43c0-0.842,0.028-1.672,0.063-2.5h-10.5c-0.035,0.828-0.063,1.658-0.063,2.5v43
		c0,32.585,28.915,62,61.5,62h10.5C227.915,278,199,248.585,199,216z"/>
</g>
<path style="fill:#C3DDF4;" d="M288,414.875V430h-64v-15.125H60.66C105.397,473.88,176.243,512,256,512s150.602-38.12,195.34-97.125
	H288z"/>
<g>
	<path style="fill:#EBAA48;" d="M222.253,205.754c-4.142,0-7.5-3.357-7.5-7.5V185.69c0-4.143,3.358-7.5,7.5-7.5s7.5,3.357,7.5,7.5
		v12.564C229.753,202.396,226.395,205.754,222.253,205.754z"/>
	<path style="fill:#EBAA48;" d="M289.747,205.754c-4.142,0-7.5-3.357-7.5-7.5V185.69c0-4.143,3.358-7.5,7.5-7.5s7.5,3.357,7.5,7.5
		v12.564C297.247,202.396,293.889,205.754,289.747,205.754z"/>
	<path style="fill:#EBAA48;" d="M262.749,230.5H256.5c-6.893,0-12.5-5.607-12.5-12.5v-18.622c0-4.143,3.358-7.5,7.5-7.5
		s7.5,3.357,7.5,7.5V215.5h3.749c4.142,0,7.5,3.357,7.5,7.5S266.892,230.5,262.749,230.5z"/>
	<path style="fill:#EBAA48;" d="M274.5,252.5h-37c-4.142,0-7.5-3.357-7.5-7.5s3.358-7.5,7.5-7.5h37c4.142,0,7.5,3.357,7.5,7.5
		S278.642,252.5,274.5,252.5z"/>
</g>
<g>
	<path style="fill:#FFFFFF;" d="M171.5,201.667h-67c-4.142,0-7.5-3.357-7.5-7.5s3.358-7.5,7.5-7.5h67c4.142,0,7.5,3.357,7.5,7.5
		C179,198.31,175.642,201.667,171.5,201.667z"/>
	<path style="fill:#FFFFFF;" d="M171.5,226.556h-67c-4.142,0-7.5-3.357-7.5-7.5s3.358-7.5,7.5-7.5h67c4.142,0,7.5,3.357,7.5,7.5
		C179,223.198,175.642,226.556,171.5,226.556z"/>
	<path style="fill:#FFFFFF;" d="M171.5,251.444h-67c-4.142,0-7.5-3.357-7.5-7.5s3.358-7.5,7.5-7.5h67c4.142,0,7.5,3.357,7.5,7.5
		S175.642,251.444,171.5,251.444z"/>
	<path style="fill:#FFFFFF;" d="M137.5,276.333h-33c-4.142,0-7.5-3.357-7.5-7.5s3.358-7.5,7.5-7.5h33c4.142,0,7.5,3.357,7.5,7.5
		S141.642,276.333,137.5,276.333z"/>
</g>
<g>
	<path style="fill:#EEF6FF;" d="M328.181,305.019c-4.142,0-7.5-3.357-7.5-7.5V279.5c0-4.143,3.358-7.5,7.5-7.5h17.772
		c4.142,0,7.5,3.357,7.5,7.5s-3.358,7.5-7.5,7.5h-10.272v10.519C335.681,301.661,332.323,305.019,328.181,305.019z"/>
	<path style="fill:#EEF6FF;" d="M406.5,305.019c-4.142,0-7.5-3.357-7.5-7.5V287h-10.272c-4.142,0-7.5-3.357-7.5-7.5
		s3.358-7.5,7.5-7.5H406.5c4.142,0,7.5,3.357,7.5,7.5v18.019C414,301.661,410.642,305.019,406.5,305.019z"/>
	<path style="fill:#EEF6FF;" d="M406.5,359.84h-17.772c-4.142,0-7.5-3.357-7.5-7.5s3.358-7.5,7.5-7.5H399v-10.023
		c0-4.143,3.358-7.5,7.5-7.5s7.5,3.357,7.5,7.5v17.523C414,356.482,410.642,359.84,406.5,359.84z"/>
	<path style="fill:#EEF6FF;" d="M345.953,359.84h-17.772c-4.142,0-7.5-3.357-7.5-7.5v-17.523c0-4.143,3.358-7.5,7.5-7.5
		s7.5,3.357,7.5,7.5v10.023h10.272c4.142,0,7.5,3.357,7.5,7.5C353.453,356.482,350.095,359.84,345.953,359.84z"/>
	<path style="fill:#EEF6FF;" d="M188.309,292.875h-78.618c-4.142,0-7.5,3.357-7.5,7.5v47.25c0,4.143,3.358,7.5,7.5,7.5h78.618
		c4.142,0,7.5-3.357,7.5-7.5v-47.25C195.809,296.232,192.451,292.875,188.309,292.875z M163.581,307.875L149,317.615l-14.581-9.74
		H163.581z M117.191,340.125v-25.721l27.643,18.467c1.261,0.843,2.713,1.264,4.166,1.264s2.905-0.421,4.166-1.264l27.643-18.467
		v25.721H117.191z"/>
	<path style="fill:#EEF6FF;" d="M299,352.125c0,1.65-1.35,3-3,3h-80c-1.65,0-3-1.35-3-3v-9c0-1.65,1.35-3,3-3h80c1.65,0,3,1.35,3,3
		V352.125z"/>
	<path style="fill:#EEF6FF;" d="M263.5,324c0,1.65-1.35,3-3,3H216c-1.65,0-3-1.35-3-3v-9c0-1.65,1.35-3,3-3h44.5c1.65,0,3,1.35,3,3
		V324z"/>
	<rect x="223.5" y="383.5" style="fill:#EEF6FF;" width="65" height="46.5"/>
</g>
<rect x="223.5" y="383.5" style="fill:#C3DDF4;" width="10.5" height="46.5"/>
<path style="fill:#60D882;" d="M235.3,383.5l4.887,8.465c0.472,0.817,1.628,1.485,2.572,1.485h26.481c0.943,0,2.1-0.668,2.572-1.485
	l4.887-8.465H235.3z"/>
<path style="fill:#FFFFFF;" d="M343,453c0,2.75-2.25,5-5,5H174c-2.75,0-5-2.25-5-5v-19c0-2.75,2.25-5,5-5h164c2.75,0,5,2.25,5,5V453
	z"/>
<path style="fill:#EEF6FF;" d="M189,453v-19c0-2.75,2.25-5,5-5h-20c-2.75,0-5,2.25-5,5v19c0,2.75,2.25,5,5,5h20
	C191.25,458,189,455.75,189,453z"/>
<path style="fill:#FFFFFF;" d="M428.445,384.5H83.555c-6.893,0-12.5-5.607-12.5-12.5V169c0-6.893,5.607-12.5,12.5-12.5h344.89
	c6.893,0,12.5,5.607,12.5,12.5v203C440.945,378.893,435.337,384.5,428.445,384.5z M86.055,369.5h339.89v-198H86.055V369.5z"/>
<g>
</g>
<g>
</g>
<g>
</g>
<g>
</g>
<g>
</g>
<g>
</g>
<g>
</g>
<g>
</g>
<g>
</g>
<g>
</g>
<g>
</g>
<g>
</g>
<g>
</g>
<g>
</g>
<g>
</g>
</svg>
