<svg id="Capa_1" enable-background="new 0 0 512 512" height="512" viewBox="0 0 512 512" width="512" xmlns="http://www.w3.org/2000/svg"><g><g><g><g><g><g><g><g><g><circle cx="256" cy="256" fill="#7584f2" r="256"/></g></g></g></g></g></g></g></g><path d="m114.457 327.892 181.075 181.075c122.614-19.007 216.468-125.027 216.468-252.967 0-6.357-.232-12.661-.687-18.902l-100.967-100.967z" fill="#4855b7"/><g><path d="m256 385.302c-40.027 0-79.437-12.299-113.968-35.567-33.494-22.571-61.861-54.984-82.032-93.735 20.172-38.752 48.538-71.165 82.032-93.734 34.531-23.268 73.94-35.567 113.968-35.567s79.438 12.299 113.968 35.567c33.494 22.57 61.86 54.982 82.032 93.734-20.172 38.751-48.538 71.164-82.032 93.734-34.531 23.269-73.941 35.568-113.968 35.568z" fill="#fff"/></g><g><path d="m452 256c-40.351-77.518-112.979-129.25-195.88-129.3v258.6c82.901-.05 155.529-51.782 195.88-129.3z" fill="#e9edf5"/></g><g><circle cx="256" cy="256" fill="#00c8c8" r="105.148"/></g><g><path d="m361.148 256c0-58.031-47.011-105.081-105.028-105.146v210.293c58.017-.066 105.028-47.116 105.028-105.147z" fill="#00a0aa"/></g><g><circle cx="256" cy="256" fill="#414952" r="60.113"/></g><g><path d="m316.113 256c0-33.159-26.849-60.044-59.992-60.11v120.22c33.143-.066 59.992-26.951 59.992-60.11z" fill="#23272b"/></g><g><circle cx="365.822" cy="175.04" fill="#ff475a" r="59.131"/></g><g><path d="m365.822 115.909c-.021 0-.042.002-.063.002v118.259c.021 0 .042.002.063.002 32.657 0 59.131-26.474 59.131-59.131 0-32.658-26.473-59.132-59.131-59.132z" fill="#f03049"/></g><g><g><path d="m360.235 213.949v-56.468l-12.95 13.184-9.45-9.917 24.5-24.617h14.467v77.818z" fill="#fff"/></g></g><g><g><path d="m365.759 136.131h11.043v77.818h-11.043z" fill="#e9edf5"/></g></g></g></svg>